/* XPM */
static char *_dd1d2d5dbc0449ae0d5abdd0e0ca547djTRzujzH995kKKq[] = {
/* columns rows colors chars-per-pixel */
"64 64 248 2 ",
"   c #0A0606",
".  c #150A07",
"X  c #150C0B",
"o  c #1A0F0C",
"O  c #1B110E",
"+  c #1C1312",
"@  c #1A191A",
"#  c #200F0E",
"$  c #22130D",
"%  c #2B170D",
"&  c #241412",
"*  c #2B1512",
"=  c #2D1914",
"-  c #241E1D",
";  c #281D1A",
":  c #321A14",
">  c #341B15",
",  c #3A1E14",
"<  c #25201E",
"1  c #2B211E",
"2  c #3B2116",
"3  c #35231C",
"4  c #3B251B",
"5  c #1F1F21",
"6  c #1D252B",
"7  c #242223",
"8  c #2C2422",
"9  c #2A292A",
"0  c #342622",
"q  c #352925",
"w  c #3C2B24",
"e  c #332C2C",
"r  c #3B2E2B",
"t  c #37302F",
"y  c #3C302E",
"u  c #2F2F33",
"i  c #393334",
"p  c #421E12",
"a  c #442215",
"s  c #4B2415",
"d  c #4C2917",
"f  c #43261A",
"g  c #432A1D",
"h  c #4B2C1B",
"j  c #512B17",
"k  c #542A15",
"l  c #5C2B14",
"z  c #552A18",
"x  c #57311B",
"c  c #5C331C",
"v  c #6C2E0F",
"b  c #632D13",
"n  c #662E16",
"m  c #633215",
"M  c #6B3414",
"N  c #63351C",
"B  c #6B361A",
"V  c #6C3B1B",
"C  c #753817",
"Z  c #7C3B15",
"A  c #7C3C1B",
"S  c #432C21",
"D  c #4A2E22",
"F  c #432F29",
"G  c #522F22",
"H  c #4C3123",
"J  c #44322C",
"K  c #483228",
"L  c #4B342B",
"P  c #533324",
"I  c #5C3523",
"U  c #583728",
"Y  c #5C3A2A",
"T  c #473735",
"R  c #553C34",
"E  c #643A23",
"W  c #6B3D22",
"Q  c #663A29",
"!  c #753D24",
"~  c #643E31",
"^  c #79431D",
"/  c #584239",
"(  c #6C422A",
")  c #744223",
"_  c #7B4523",
"`  c #7B432B",
"'  c #7B4929",
"]  c #6A4536",
"[  c #764835",
"{  c #78523B",
"}  c #25394B",
"|  c #473F44",
" . c #2D4557",
".. c #3A5373",
"X. c #4B4449",
"o. c #574645",
"O. c #484857",
"+. c #554E55",
"@. c #5B5258",
"#. c #6D534A",
"$. c #7C605C",
"%. c #4E556D",
"&. c #645C65",
"*. c #526273",
"=. c #776A68",
"-. c #646878",
";. c #746D73",
":. c #8F3D0E",
">. c #863D16",
",. c #813F21",
"<. c #85441C",
"1. c #8B431A",
"2. c #894519",
"3. c #974718",
"4. c #934B1C",
"5. c #9A521D",
"6. c #A64B16",
"7. c #B34C11",
"8. c #A9551C",
"9. c #B9591A",
"0. c #BC631D",
"q. c #834423",
"w. c #844A24",
"e. c #894A27",
"r. c #954C25",
"t. c #8C5229",
"y. c #985527",
"u. c #9C552B",
"i. c #844C32",
"p. c #8B543A",
"a. c #985735",
"s. c #A75126",
"d. c #A85826",
"f. c #A45B2D",
"g. c #B55D25",
"h. c #A45D34",
"j. c #9A682E",
"k. c #AA652B",
"l. c #BB6322",
"z. c #B86728",
"x. c #BB732E",
"c. c #AC6234",
"v. c #A86538",
"b. c #B66936",
"n. c #BB6B34",
"m. c #BD7339",
"M. c #C45C18",
"N. c #C9661D",
"B. c #D4701D",
"V. c #C66925",
"C. c #C97528",
"Z. c #CC742B",
"A. c #D47826",
"S. c #D37D2B",
"D. c #C36C34",
"F. c #C57335",
"G. c #CB7434",
"H. c #CC7A34",
"J. c #C3743A",
"K. c #C7783A",
"L. c #CB7B3A",
"P. c #D17C36",
"I. c #885E49",
"U. c #916C57",
"Y. c #AE744A",
"T. c #8E776E",
"R. c #8A7B78",
"E. c #C47840",
"W. c #DA8629",
"Q. c #DE922E",
"!. c #C98536",
"~. c #CD823C",
"^. c #D48334",
"/. c #D78833",
"(. c #DC8C34",
"). c #D3843A",
"_. c #D5893C",
"`. c #DA8D3A",
"'. c #DD9334",
"]. c #DF9A32",
"[. c #DC933C",
"{. c #DE9A39",
"}. c #E18B28",
"|. c #E5992A",
" X c #E19737",
".X c #E29B3C",
"XX c #E8A32D",
"oX c #E6A638",
"OX c #EAB33C",
"+X c #9B8478",
"@X c #AF8B73",
"#X c #C98545",
"$X c #D68B41",
"%X c #D58D41",
"&X c #D99544",
"*X c #DD9B44",
"=X c #CE9357",
"-X c #E29E42",
";X c #DDA247",
":X c #DFAF52",
">X c #E3A444",
",X c #E4AB44",
"<X c #E1A549",
"1X c #E3AC4A",
"2X c #E7B549",
"3X c #E6B855",
"4X c #C8996E",
"5X c #D7A66F",
"6X c #E6BE68",
"7X c #E9C451",
"8X c #E8C759",
"9X c #E8C965",
"0X c #E9D26D",
"qX c #E9D374",
"wX c #395A86",
"eX c #386397",
"rX c #3B6FA5",
"tX c #4E6E8D",
"yX c #59749D",
"uX c #6B758A",
"iX c #777989",
"pX c #817D85",
"aX c #71859A",
"sX c #5488B1",
"dX c #6D8BAF",
"fX c #3F88C5",
"gX c #4D97CB",
"hX c #6B9CC8",
"jX c #55A7D9",
"kX c #74ABD5",
"lX c #58AEE1",
"zX c #5DB7E5",
"xX c #61BBE7",
"cX c #68C2EB",
"vX c #91888C",
"bX c #AC958F",
"nX c #BEA49A",
"mX c #8D98AC",
"MX c #8FA6BB",
"NX c #ADAAB1",
"BX c #D4A982",
"VX c #E8D383",
"CX c #93BAD5",
"ZX c #A7B7CA",
"AX c #ADC5D9",
"SX c #98C6E5",
"DX c #AED1E6",
"FX c #C4D5DD",
/* pixels */
"+ @ @ + & @ @ 5 @ @ @ @ @ 5 5 5 5 6 5 6 6 5 5 < @ @ < < 5 0 1 4 F 1 5 1 7 7 7 7 9 7 7 < 7 7 7 7 9 9 q r T T R G F ~ i.a.a.c.c.h.",
"< < 5 < 5 7 5 7 5 5 7 7 7 7 7 6 9 u 9 9 9 7 9 8 1 1 1 8 0 F F ~ [ U q u e e e i e e u u e e u i i i T T [ [ p.[ [ h.E.P.E.E.P.E.",
"< < < 7 1 7 5 7 7 5 7 7 7 9 7 7 7 u u u 9 9 1 1 1 8 e r F T R [ I.i.L J J T y | T J J T J T T R R | | ~ I.p.p.[ p.h.E.P.$XE.P.P.",
"q q q w q q q 0 1 - 7 5 5 5 5 7 5 5 5 8 9 e F D P P P P U Q i.a.h.h.! ~ Q Q Q Q [ ~ ~ ! Q Q ~ ~ ~ ~ ~ I.h.a.a.p.p.D.L.5X`.E.$X-X",
"k j G d f f p 4 > - - - - - 5 - - 5 ; < < 8 U l l c n I Q ! h.D.J.b.f.a.h.c.E.$X#XK.b.h.a.i.i.! ! ! [ I.h.h.v.a.a.K.%X`.$X(.`.-X",
"1.A n n n n l z d - - ; 5 8 7 8 - 8 8 8 0 r ~ ! N n n ! ,.r.E.P.$XL.b.E.E.-X&X&X-X&X&X#Xh.,.i.! ! [ i.a.v.D.E.b.c.K.K.).-X.X.X1X",
">.>.B n n n n n z 1 ; 5 ; 7 8 - 8 8 < 0 q r Q ! ! b B ,.e.s.E.&X$X$XJ.E.E.P.E.&X<X*XE.Y.,.! ! Q ~ ! i.c.E.E.E.P.J.D.h.F.1X>X.X1X",
">.r.C z p z p s p 1 - 7 ; 7 - - < 1 8 8 e T [ e.r.A e.h.h.D.E.*X-X-X-XE.J.J.P.$X-XL.L.i.Q Q N I ~ Q I.E.L.L.=X$XD.h.u.k.:X,X.XoX",
"8.k.V B z f a , p 1 - ; 7 7 ; ; - ; 0 q K ] p.k.m.b.D.D.b.K.[.[.<X*X;XE.D.E.D.E.D.E.a.Q G G h G U ,.v.E.-X-X-X&Xb.h.f.b.;X1X;X,X",
"Z.S.D.x.r.s l s = ; ; ; 1 8 1 ; 1 ; 8 0 U I.Y.b.K.K.K.J.F./.&X&X<XE.L.E.E.D.D.E.E.D.i.G D D D D G p.v.L.$X-X-X$Xb.s.n.&X:X3X;X,X",
"A.S.'.[.K.q.j a : 7 1 8 9 q e ; ; 1 0 0 Y a.#XK.P.).E.K.&X[.[.[.*Xc.h.D.P.D.D.G.J.c.! Q S S S D Q ,.h.J.$X-X-XP.D.g.D.:X:X9X3X,X",
"Z.Z.{.'.{.K.y.N G 0 0 u u u e 1 8 > 1 S L Y.#XJ._.E.).*X*XH.m.!.#Xu.e.G.E.D.D.E.E.p.U D S g w S G Y u.G.`.-X X(.D.n.P.<X3X8X7X,X",
"d.Z.Q.'.*X/./.f.r.q u i t u q 0 1 1 3 P Q a.K.#X$XF.$X&Xn.y.c.b.K.t.u.P.G.D.D.D.b.i.Q S S f S g D U a.G. X>X-XP.Z.D.`.<X:X3X8X:X",
"9.Z.'.>X1X{.[.n.h.F i i i e e 0 0 3 w G i.Y.m.J._.).&XF.t._ h.v.b.i.c.P.G.G.b.D.b.a.G S S w S S D U h.E..X>X X(.(.'.:X*X;X3X3X,X",
"4.C.'.{.>X[.).b.! F i i i u e r 0 0 D Q a.m.c.G.[.`.).f.` e.u.h.j.t.b.P.G.D.g.D.b.a.I S f f w S G Q h.E..X.X X X.X3X3X>X,X3X1X,X",
"5.0.C.W.W. X`.L.q.r t i y i r F w 0 P t.m.J.n.)..X[.F.f.! e.s.c.b.K.#X-XG.D.D.D.n.d.E S w S S D U i.c.J.`.(.Q.oX,X3X3X2X3X>XoX1X",
"v Z 4.d.C.S./.F.y.w e i y y r q w S Q u.$X_.G. X.X.Xn.y.B f.b.b.c.#X-X<XJ.D.P.G.D.D.Q f f D F G Q [ h.b.P._.`.>X2X3X3X1X-X[.G.>X",
": a C s.C.(.(.S.D.D q y t y y r w P u.b._.`.).-X>X[.f.<.! c.h.h.NXMXNX5XD.L.-XL.E.c.Q L | O.| @.&.U.Y.U.Y.b.$X,X3X3X2X2X&Xg.G..X",
"p v 6.C.S.(. X(.G.x q y y y y r J Q c.J.P.`.-X3X1X`.r.C <.f.r.vXDXdXdXBX`.&X&XJ.c.a.! | O.| | &.uXpX4XpX+XY.-X<X3X6X3X3X#Xm.H. X",
"v 3.0.W.Z.S.(./.^.E q y y y i J L i.b.L.).`.>X1X>X!.r.m b q.r.R.yX%.@.5X1X1X%Xb.! Q Q L L L R ~ #.U.=X4XU.v.-X1X3X9XqX6X&X`.^. X",
"v 2.V.'. XS.(.(.`.( w t y y J y L i.m.G.G.).<X-X[.F.k.^ n >.f.bXhX%.R.5X<X1X<XE.p.! Q ~ ~ ~ ~ ~ Q I.=X5XD.n.-X1XqXqXVX6X;X-X X>X",
"l ^ 8.'..X/. X X'.) w r r y y F F i.K.b.b.J.-X$X).K.~.n.u.q.b.4X-.| @X X<X:X&XY.I.h.p.~ ~ i.,.~ Q p.$X<XL.P..X6XqX0XqX8X3X>X>X2X",
"2.8.W.Q.(.V.Q.S.(.) 0 w w r r F F h._.J.b.n.P.L.H.).>X[.~.~.$XBXpX| pX5X<X-X$XY.v.a.a.! ! [ ,.! ,.a.&X<X`.[. X2X6X9X0X3X3X3X2X>X",
"8.0.W.(.S.V.V.^.(.! 4 w w w w S c c.K.m.f.n.F.F./.(..X>X>XBXFXSXMX-.dXpXbX4X&XE.E.b.I.! ~ ! ! i.,.h.&X-X.X X>X9X0X9X9X2X2X3X2XQ.",
"0.0.V.C. X^.C.'./.^ 4 0 0 f w x q.b.c.n.f.b.P.n./.`.(..XBXDXFXDXSXkXkXlXhXdXnXb.P.D.a.! ! ! ,.,.u.G.P.P.P. X3X0X0X9X8X2X>X2X.XA.",
"0.N.C.W..XZ.S.'.(.V 4 4 0 4 h ! r.D.u.D.b.b.^.D.^.(.`. XnXNXDXSXDXkXhXkXhXyXpXE.G.z.s.,.! i.,.,.h.P.P.D.D.P.,X0XqX3X8X2XOX}.A.A.",
"C.W.W./.>XoX'.P.Z.N 4 4 4 4 z W u.Z.n.c.D.D.P._.`. X`.`.T.T.uXCXkXtXhXsXO.o.pXE.J.b.h.e.,.r.r.,.F.(.n.s.s.V.-X6X9X9X7XoX-XA.A.A.",
"/.{.].{. X|.A.B.V.c f 4 4 0 f E r.D.D.D.n.F.L..X`._.`.).R.T.R.-.tXpXiX| T.pXpXE.n.c.s.r.,.1.r.r.(.(.g.s.g.P.oX2X8X,X2XOX}.}.S.A.",
"].].W.].].W.V.N.V.E S , 0 f 4 z r.D.F.K.K.F._.`.`.`.$X=XpXU.R.R.$.pXpX| pXBX&.Y.h.c.d.g.r.,.r.r.S.V.s.g.V.P.oX X>X|.|.2X X>XXXS.",
"XX].Q.Q.W.W.l.M.V.z , 4 4 , 4 f z y.m.b.K.H.`..X-X-X&X=XT.Y.bXvXbXbXpXi T.4XU.4XE.s.s.d.3.>.>.1.g.s.s.g.A. X XA.B.A.2X3XXX}.}.}.",
"W.W.Q.|.W.W.9.V.V.l , , , 4 4 f f j u.m.K.F.(.[.-X X).4XT.Y.@XvXpXNX%.| bX3Xo.T.P.g.s.s.1.>.C r.s.s.g.g.M.G.A.M.N.B.OX,XXX|.XXXX",
"B.V.9.0.W.W.V.B.N.p , 4 , , , 4 f h _ b.H.n.).{.[.`.J.NXuXY.vXbX;.bX| R pX-XT.T.E.s.b.s.>.>.v ! A 6.s.6.7.7.M.N.B.}.OX,XXX|.XXoX",
"W.N.A.C.}.Z.M.g.V.a , 3 > 2 2 2 f z ) u.D.n.G.-X`.E.D.MX-.=XpXvXiXZXwXX.T.D.vXT._.y.s.r.>.>.C A >.s.M.V.M.7.M.B.B.B.XXXXOX}.XXXX",
"W.W.A.W.S.V.9.l.g.a , > > > , 2 h ^ e.f.n.J.^.>X-XL.D.mXiXE.bXCXCXDXyX .T.-X+XU._.s.3.1.M n >.,.s.9.9.V.M.7.M.M.M.B.}.|.OXXXXX|.",
"W.W.Q.W.W.V.N.8.g.p > > > > , , k 4.s.u.n.D.P.(.D.Z.-XnXvXY.MXmXAXDXyX%.vX*X@XU.n.s.>.M n v >.6.M.V.M.s.M.7.7.M.M.7.M.B.|.XXXX|.",
"N.W.B.Z.A.|.C.5.d., > > ; > > a b g.V.D.Z.Z./.(.D.^.P.BXpX=XAXmXpXNXuXhXdXv.bXI.h.r.1.C C C >.7.9.M.A.M.M.M.M.M.M.M.M.B.|.XX|.OX",
"0.0.9.C.S.W.l.8.8.: = = = = > b Z 2.5.g.D.Z.W.S.G.G.H.4XMX5XSXhX*.;.DXSXiXI.=.o.q.u.<.A A >.:.8.7.7.N.A.A.B.M.B.M.7.M.B.XXXXXXOX",
"9.0.6.0.S.C.8.Z 3.: * * * * > 1.4.>.r.l.C.^.(.Q.(.(.S.bXZXNXAXaX+.MXCXkXuX/ @.=.z q.<.C C >.r.r.6.6.9.A.XXA.B.B.M.N.B.B.|.}.|.OX",
"7.6.2.3.0.9.:.Z >.: * * = % , C 2.Z 1.g.S.Z.C.Z.^..X[.#X+XvXDXuX@.MXZXkXiXK R o.f z z n >.6.g.1.3.6.3.M.B.}.B.B.M.M.}.}.|.}.XX7X",
"0.6.8.3.0.l.v C l * * & * * = d 4.Z <.s.g.d.l.C.W./.!.G.).@XAX-.@.dXAXkX;.4 4 f s z z n >.s.g.3.>.3.3.7.7.A.oX}.M.B.|.XXoX|.XX7X",
"4.8.3.8.^ 2.v , : & & # * * = M 1.2.2.C 2.8.z.S.x.z.l.x.^.@XNX&.&.aXAXdX&.2 2 a s b v b A A >.>.6.7.Z 6.2.B.].XXB.|.OX7X7X7X7X8X",
"2.0.2.^ M m % % * & & * * : 2 4.1.Z ^ v C >.8.g.V.k.z.d.l.I.NX-.&.-.DXuX+.> 2 a s b Z :.s.3.:.:.6.0.3.3.3.7.C.2XOX7X0XOX7X7X7X8X",
"2.) m s k , % % & & # & e.B M M z M Z Z M M ^ 4.k.4.y.5.s.~ ZX-.@.-.AX*.o.> , , p s v v 3.7.6.9.B.0.3.6.6.9.].OX0X0X0XOX0X8X7XqX",
"x % O O o $ o o o o # # B s j d f l C m C m ^ <.5.y.^ <.N H NX&.+.-.ZX%.H s a a s s v v 6.9.6.8.0.5.v Z 2.3.oXOX8X8X8X7X8X8X0X0X",
"# # p p % : . X X X o o 2 a k > , b v l M l 2.^ M t.j k , 4 ;.X.o.@.NX+.h j s j s v n >.9.6.6.9.3.l k l v ^ W.XX8X8X8X8X8X7X7X7X",
"p % l l % % o . X X X * > v k > : p Z l s , l l z x : , : , e y ;.o.@.@.f j z z n n W >.g.V.0.9.8.Z l v l v 8.8.j.;X8X8X7XOX2XOX",
"b l C l * o X X . X . > $ a M f % Z 2.b a > 2 % : : : , > > 0 r | o.+.&.f a a s p z z N :.8.V.V.8.v M ^ ^ ^ 2.k.j.!.8XqXqX8XOXXX",
"^ 6.8.>.v p * & $ O X O > , A a k <.2.l d a > @ & & & & > s s r - @./ @.g s a f p p p p p p C V.8.x.8.C m ^ ^ m ^ 5.!.8X8X8X2X].",
"4.k.y.Z M = $ % $ + X + l u.t.V Z 2.4.s * a = + + + & + > a s 3 t i T T d d f a a , > , p * : l k.].5.^ >.>.l l p ^ x.!.!.k.!.5.",
"4.f.k.<.^ & & & O O + 2 z k.^ V k 2.1.B > m = + + + + $ a , > > i i i r f d f f f > : : p % a k l 8.s d s p 2 ^ l m _ t.^ ^ ^ ) ",
"B 2.y.V 2 % % 1 + + f <.x.w.w.4 C 8.5.2.m M & + + o + O O O + | mXO.y J K L J K S , > 4 ^ M V l d ^ ^ , = & & & 2 s x c ( ' ] ( ",
"$ l 5.c 2 > > % & h y.y.' ' <.d.z.0.3.5.C B + + & O $ = * & 3 aXZXtXe x I I I c c E I D P P Y H g x c ) 4 ; 2 2 2 c ^ ( { #.=.iX",
"X $ & d j d d j g 4 ) c x V d.8.0.2.w.M ^ ^ + O + & = > 2 d x &.mX-.O.I E N E E c E E c G D D F g H h H D D H H H ^ ^ ' / /  .+.",
"X O 4.c m M m m d 2 2 x ^ y.5.8.C.k.x.z.8.m < % = > j c c c c Y ~ pXZX#.c x x c x x z h h h g h h H h h x x E E ( ( U H w / +.+.",
"X X a v M 4.M v k $ % d 5.C.z.8.z.W.W.x.<.g 3 4 g h h c / c x -.MXmXMXpXE ) ( W E I P P P D P T L / T I ' i.` Q o.#.#.=.=.sXsXsX",
"  X X Z 5.5.2.^ M 2 2 g 4.z.5.2.g.0.k.x.y.x h d x D D L c ) c &.mX-.;.! ) ' ' ' ) Q Y I R X.X.T / Y I ) f.j.' ] / X.{ =.pXpXpXaX",
"X X % ) <.<.m ^ V j = $ x k.5.j.k.0.0.w.t.) ( ( W ) W K V ) E Y &.| $.' ' w.w.t.^ ) c x E c c ) E E ( ' ) E { /  .*.fXgXaXaXaXhX",
"+ + c <.w.^ c U ( O o = ^ k m ^ ^ M ' j.( H x ( ) ^ W W ) ) ( x P #.#.a._ t.t.a.' ( E x c c I U U / |  .*...*...tXjXjXlXjXzXzXxX",
"7 1 g I Y U U U / @ O ^ x m % % d ^ ^ ( / ) ) ) ' ^ ' ) ^ ^ V ( P R T.I.j.k.j.t.) Y / H / /  .O.O.....wX..eXrXfXjXlXzXzXjXlXzXxX",
"% 1 3 4 N ) N ) m % + h 4 w % 1 0 H c ^ ^ ^ 2.y.5.j.^ ^ ' ' ) #.U #.R.U.j.m.v._ E x h h 4 w X...wX..eXrXeXeXfXjXzXzXzXzXxXxXcXcX",
"f h c ^ ^ ' ^ ) V 4 % < g H g g d x ) ^ ' 5.4.5.2.' ^ ^ ^ ) ] / / #.;.+X' a.( / / H H H H g D F / |  .X.wXsXjXzXxXxXxXxXxXzXzXxX",
"c ) ) _ ^ ^ ( c x H 9 < g E P H ( ) ^ ^ 2.w.^ 2.t.^ ' ) ) / o.Y / { U.$.w.t.t.N P P H T K H g K J / ..*. .wXfXjXzXzXzXxXxXxXxXxX",
"c c ) ^ ^ ^ c ) x h 8 < 8 H H x ^ ^ w.^ ^ ) 2.2.^ j.t.^ ) ( / H E { ] { t.' ' H P H H H S K K K i  .wXrX*.*.tXsXgXhXhXjXzXzXzXzX",
"X X O X O O O O O       X X X O $ $ % $ O o % % % % % % % $ X O O + O - % % O o X o O O X X + X +   6 }  .6 6 6 9 3 e 6 }  .}  ."
};
