/* XPM */
static char *eb2495c1a86349db84306bb697467d72XB4WV2KSGK8KZWbO[] = {
/* columns rows colors chars-per-pixel */
"64 64 204 2 ",
"  c #980088",
".  c #0B0B0D",
"X  c #000001",
"o  c #0C0D13",
"O  c #100F12",
"+  c #111115",
"@  c #14151B",
"#  c #1D1E25",
"$  c #1D1E2B",
"%  c #25252A",
"&  c #2A292E",
"*  c #28282E",
"=  c #2C2C32",
"-  c #232532",
";  c #302E38",
":  c #2E3038",
">  c #333135",
",  c #33333B",
"<  c #39373C",
"1  c #37393E",
"2  c #3A3A3D",
"3  c #333341",
"4  c #3A3742",
"5  c #3C3C44",
"6  c #3E3D4A",
"7  c #343843",
"8  c #403F48",
"9  c #3E414B",
"0  c #3F4147",
"q  c #424246",
"w  c #44444C",
"e  c #49474D",
"r  c #47494E",
"t  c #4A4A4D",
"y  c #434251",
"u  c #484756",
"i  c #464952",
"p  c #4B4C54",
"a  c #4C4C5B",
"s  c #514F54",
"d  c #504E5B",
"f  c #4F515A",
"g  c #4F5055",
"h  c #535356",
"j  c #54545C",
"k  c #5B5B5D",
"l  c #5A565D",
"z  c #464D60",
"x  c #4C596E",
"c  c #445369",
"v  c #545462",
"b  c #575964",
"n  c #5B5C64",
"m  c #54596B",
"M  c #5C5C6A",
"N  c #56576A",
"B  c #475D77",
"V  c #5B5F72",
"C  c #575F74",
"Z  c #615E63",
"A  c #5F6169",
"S  c #5E6067",
"D  c #5C6173",
"F  c #5A657C",
"G  c #616166",
"H  c #63636C",
"J  c #67686F",
"K  c #6A6A6E",
"L  c #68676D",
"P  c #636573",
"I  c #696772",
"U  c #666873",
"Y  c #6B6C74",
"T  c #64657A",
"R  c #66697B",
"E  c #6B6C7B",
"W  c #706F76",
"Q  c #6F7077",
"!  c #6E717B",
"~  c #727276",
"^  c #73747B",
"/  c #77787D",
"(  c #797A7E",
")  c #496A86",
"_  c #506D87",
"`  c #5D768C",
"'  c #567F9E",
"]  c #6D6D83",
"[  c #606D80",
"{  c #726F82",
"}  c #6D7282",
"|  c #677489",
" . c #737582",
".. c #797684",
"X. c #767984",
"o. c #7B7C83",
"O. c #73748A",
"+. c #79778C",
"@. c #767A8B",
"#. c #7B7D8B",
"$. c #7B7C93",
"%. c #7D7F98",
"&. c #747990",
"*. c #827F8B",
"=. c #8D7A83",
"-. c #817F92",
";. c #9A7B82",
":. c #5F8099",
">. c #7F8084",
",. c #7E808B",
"<. c #618198",
"1. c #7E8193",
"2. c #7B8198",
"3. c #5E8CA8",
"4. c #638AA4",
"5. c #648EAB",
"6. c #6892AE",
"7. c #6D99B7",
"8. c #7A9FBB",
"9. c #79A2BF",
"0. c #6DA7C7",
"q. c #6DB0D2",
"w. c #828287",
"e. c #82838B",
"r. c #8B868B",
"t. c #838493",
"y. c #878993",
"u. c #8A8B93",
"i. c #838499",
"p. c #89879B",
"a. c #858A9B",
"s. c #8B8C9A",
"d. c #888396",
"f. c #8E919B",
"g. c #909196",
"h. c #93949C",
"j. c #99999D",
"k. c #97989F",
"l. c #A6868E",
"z. c #868AA1",
"x. c #8C8DA3",
"c. c #888FA9",
"v. c #8D92A3",
"b. c #9395A4",
"n. c #9698A4",
"m. c #9A9CA4",
"M. c #9495AA",
"N. c #9699AF",
"B. c #9A9DAC",
"V. c #9499B2",
"C. c #999DB2",
"Z. c #989FB9",
"A. c #9FA1AB",
"S. c #9DA0B4",
"D. c #9EA4BC",
"F. c #A1A2A6",
"G. c #A3A4AC",
"H. c #AAAAAF",
"J. c #A8A6AD",
"K. c #A2A4B1",
"L. c #A6A9B3",
"P. c #ABACB4",
"I. c #A3A5BB",
"U. c #A4AAB9",
"Y. c #AAACBA",
"T. c #A8A7B6",
"R. c #AEB1BB",
"E. c #B4B4BC",
"W. c #BABBBF",
"Q. c #B6B6BB",
"!. c #9EA6C0",
"~. c #A9ADC4",
"^. c #A7AEC1",
"/. c #AFB2C3",
"(. c #ADB3CB",
"). c #B5B9C5",
"_. c #BBBCC3",
"`. c #B2B6CE",
"'. c #B6BAC9",
"]. c #ADB6D1",
"[. c #B5BBD5",
"{. c #BBBFD6",
"}. c #BEC1C4",
"|. c #BDC0C8",
" X c #BDC2D4",
".X c #BDC3DC",
"XX c #C3C3C7",
"oX c #C3C4CC",
"OX c #C6C8CC",
"+X c #C1C4D1",
"@X c #C7C8D1",
"#X c #C7C9D8",
"$X c #CED0DC",
"%X c #D4D6DC",
"&X c #DADBDE",
"*X c #D3D3D6",
"=X c #CDD2E3",
"-X c #DCDDE2",
";X c #D0D5E2",
":X c #E0DFE1",
">X c #E6E6E8",
",X c #EBEBED",
"<X c #F0EFF1",
"1X c #F2F3F4",
/* pixels */
"                                  j j 4 q r                                                                                     ",
"                                y.m.j j ^ f.k.^                                                                                 ",
"                              w.*X-XX.S n.&X&Xj.                                                                                ",
"                              ~ H.@XB.u.X._.}.w.                                                                                ",
"                                J.=.l.g.w.;.=.y.                                                                                ",
"                                |.R.v.f.r.A.m.J.                                                                                ",
"                                R.P.^.|.).J.k.A.                                                                                ",
"                                L.R.n.m.h.e.f.g.                                                                                ",
"                              Y.P.s.A.h.u./ >.g.} ! X.        U y.                                                              ",
"            OX,.}  .U A  .,.Y Y ,.Q / ,.w.( / ,.a.X.H S >.Q j : 7   k.                                                          ",
"        y.    - # = v f.j # % r n i j k G S j g # % b ! i # $ $ 4 q w y.P.                                                      ",
"      R. .X.Q 3 - , 0 g U A g t 0 D U D } } w r 0 j D r 1 p b 9 G ^ n #.W.                                                      ",
"      u./ X.X.f A S p h t w k w w Y U  .U D S j g S * w ! U r = o h o.m.|.                                                      ",
"    G.! ! X.p @ + 1 L Y Y l / ^ o.,.L e.} / / f A U >.X.p X + + . p S G ^ Q                                                     ",
"  &X<X%XH.S %   7 j A A X.m.w.h Q y.J f.} >.f.i f S p - + . : 0   2 k ~ G s                                                     ",
"  -X1XoXA.Q 2     j U 5 p p ,.,.Q b S E 2.S.^.Y.a.U b 0 % 9 a 5 q j.A.oXP./                                                     ",
">X>X*X~ w.w.>.    1 < Y u.E m A E v A O.b.S.D.v.} b @.a.S 0 , S   |./.@XOXF.                                                    ",
":XOXQ.w.OX).X.    p b w.R M R n n R f f v S A A P P P v L H H     _.R.oXXXF.                                                    ",
"XXXXw.m.'.K.}         = 5 a @.@.E f a p 0 0 p m b U i 0 S H         Y u.F.P.                                                    ",
"  ,Xj.u.A.e.            G.>.b H 0 9 0 = & = , 1 w j 5  .L.F.        w.w.w.                                                      ",
"  W.Q./ /               u.g.q 8 j j 2 k H j t % q w   H #.        I A U X.                                                      ",
"e.y.G.r.A.X.H             o.G.      K Q S k K K         u.        ~ S j ^                                                       ",
"  H.g.@X<XP.>.OXu.          OX      G G A D H w.Y     k.u.        n b U o.                                                      ",
"        XXH.R.H.u.W.        o.      y.A H >.U k       H H   K.^ m.E.A.>.A                                                       ",
"              P.P._.}.|.W.d.Y e h / X.>.k t j n S g j w.u...Y r.G.H.j.j.P.                                                      ",
"                    %X,X&XW.W.G.L = n / H j p H k w  .a.g.J.u.^ *.n.P./.P.                                                      ",
"                      OXH.Q.Q.h.G o.f.y.n t h s.A.| 2.R           @.X.w.          I.I.-.M                             x.d.      ",
"                          _.J.Z Z e L K l I n { ! ! A U p.E R 1.O.T D b           [.`.I.b.i.s.D.C.z.M.(.x.@.x.(.M.v.B.M.s.d.    ",
"                      G.N.s.s.l q L #.t.n.C./.#X#XU.Y 4 6 v ..p.t.*.s.t.d.N.i.@.I.I.V.Z.~.(.(.[.(.^.!.].!.Z.Z.D.i. .E ] E E     ",
"                    ,XR.1.! ~. X{. X[.`./.).+X.X~.D.N.M.N.N.N.N.p.t.p.a.b.V.Z.V.V.x.z.$.&.[ m V m z B F | ' 4.3.3.4.' | F y w d ",
"                  ;X_.h ~ H.p E a.s.x.#.* & ; 8 d ; y ] a.z.&.O.I N b D [ ` ` <.4.5.6.7.8.9.0.0.0.q.0.7.5.4.' ) B x m v 4 2 %   ",
"                %X! g t H u.H b j a j l e j *.T.T.n.~.M.@.z.E ..^ P 2.2.| _ _ B ) c z x C C F T | $.z.z.i.i.i.x.O.] R +.e.*.    ",
"                A.f.B.+XJ.M.K.T.T.N.b...q l O.+.D u v a 6 8 , 2 Z ] { $.$.-.$.O.+.$.+.+.x.x.x.x.M.M.x.-.-.-.$.+.] N z N -.-.    ",
"              %XE ,.E.R.E   u v u 8 4 ; % . + % ; y i.I.C.x.d.-.d...{ +.$.-.-.O.] O.] R ] ] V v V v d N d u 6 u 8 8 7 8 E ..    ",
"                N.K.|. .,.  *. .I { E R T b a M E #.i.z.-.&.] E { M u d a v u 4 6 u y 5 6 6 6 6                                 ",
"                $X=XE.R y.P.p.i.-.-.$.$.$.$.2.$.O.] T T  .#.a.L.K.W                                                             ",
"              ;X X).G.A m.R.S.                        #.o.y._.-X;X                                                              ",
"              e.u.).f.( Q.L.n.                        #.>.j.E.#X$X                                                              ",
"              X.w.R.Q w.f.U                             X.e.a.U U                                                               ",
"              K.L.U.g.A.R.                                f.v.,...                                                              ",
"            =X'.Q.R.n.R.                                  t.a.,.v.n.                                                            ",
"            ;X+XY.m.,.B.                                  a.1.d.a.v.                                                            ",
"            |.R.B.s.,.H                                 Y X.*.,.y.1.                                                            ",
"             XL H o.A.R.                                L.Y t G #.w.                                                            ",
"          n.n.Q n ,.v.y.                                b.e. .Y Y G                                                             ",
"            ! 1.@.L t i                                   b Z H k t                                                             ",
"            m.! E Q /                                   n.y.s h u.A.                                                            ",
"            ).,.@.T.#.s                                 X.,.~ o.f...                                                            ",
"            b.D k U H r                                 Y j 5 i W ..                                                            ",
"            ,.w t U  .H                                   l < w H                                                               ",
"            t.U n L Y                                     U h s Z                                                               ",
"            a.@.Y E L                                     8 < 5 I                                                               ",
"              E n K l                                       > w E                                                               ",
"              U l Y                                         > w P                                                               ",
"              k t Z                                         > l E                                                               ",
"              G t t                                         2 j ^                                                               ",
"              I h e                                         h G #.                                                              ",
"              ^ s q                                         ,.K o.                                                              ",
"               .G o.                                        j t h G                                                             ",
"            Y n L w.                                        t K ( ~ ~                                                           ",
"          ~ ..( ^ k                                         w K ~ K K                                                           ",
"        K K ^ L K G                                           K K Q w.(                                                         ",
"      w.>.^ ( ~                                                   ( ^ Y                                                         ",
"      Y K n t                                                                                                                   "
};
